<svg width="16" height="16" viewBox="0 0 16 16" fill="none" xmlns="http://www.w3.org/2000/svg">
<path d="M14.3957 8.73288L13.8716 8.20865C13.7071 8.04384 13.4871 7.95265 13.2529 7.95265C13.0185 7.95265 12.7787 8.04384 12.6141 8.20865L9.22563 11.577V0.875577C9.22563 0.392976 8.87337 0 8.3909 0H7.6493C7.16696 0 6.7256 0.392976 6.7256 0.875577V11.6151L3.34387 8.20865C3.17906 8.04384 2.97171 7.95265 2.7373 7.95265C2.50316 7.95265 2.2893 8.04384 2.12462 8.20865L1.60338 8.73288C1.26231 9.07408 1.26374 9.62914 1.60481 9.97034L7.37965 15.7445C7.54407 15.9089 7.76469 16 8.00078 16H8.00326C8.23753 16 8.45763 15.9089 8.62205 15.7445L14.3957 9.97047C14.737 9.6294 14.737 9.07408 14.3957 8.73288Z" fill="white"/>
</svg>
