<svg width="20" height="22" viewBox="0 0 20 22" fill="none" xmlns="http://www.w3.org/2000/svg">
<path d="M0 17.7364L0.165859 17.5502L8.00992 5.61151L8.02648 5.48512L4.56875 0.275285C4.27891 -0.161119 3.46328 -0.0507644 3.36828 0.437777L0 17.7364Z" fill="#FFC24A"/>
<path d="M0.0978928 17.5944L0.223283 17.3982L7.98524 5.58463L4.53602 0.353612C4.24938 -0.0782169 3.52141 0.0318866 3.42735 0.515289L0.0978928 17.5944Z" fill="#FFA712"/>
<g filter="url(#filter0_i)">
<path d="M0.0978928 17.5944L0.223283 17.3982L7.98524 5.58463L4.53602 0.353612C4.24938 -0.0782169 3.52141 0.0318866 3.42735 0.515289L0.0978928 17.5944Z" fill="#FCA512"/>
</g>
<path d="M10.5473 9.42583L13.1219 7.31086L10.5465 3.36731C10.302 2.99401 9.61945 2.99288 9.37758 3.36731L8.00156 5.47206V5.65129L10.5472 9.42583H10.5473Z" fill="#F4BD62"/>
<path d="M10.5013 9.33769L13.0044 7.28151L10.5013 3.45847C10.2637 3.09557 9.68625 3.05754 9.45109 3.4215L8.06789 5.55896L8.02648 5.66825L10.5013 9.33769V9.33769Z" fill="#FFA50E"/>
<g filter="url(#filter1_i)">
<path d="M10.5013 9.33769L13.0044 7.28151L10.5013 3.45847C10.2637 3.09557 9.68625 3.05754 9.45109 3.4215L8.06789 5.55896L8.02648 5.66825L10.5013 9.33769V9.33769Z" fill="#FCA512"/>
</g>
<path d="M0 17.7365L0.0751563 17.6758L0.348281 17.5868L10.3855 9.56561L10.5127 9.28793L8.00883 5.46069L0 17.7365Z" fill="#F6820C"/>
<path d="M10.8688 21.7817L19.9528 17.718L17.3588 4.90319C17.2776 4.50226 16.6644 4.34378 16.3066 4.63122L0 17.7364L9.03188 21.7814C9.31261 21.9071 9.62877 21.9731 9.9503 21.9732C10.2718 21.9732 10.588 21.9073 10.8688 21.7817" fill="#FDE068"/>
<path d="M19.8714 17.6839L17.297 4.96642C17.2166 4.5685 16.7066 4.40387 16.3515 4.68919L0.100784 17.7115L9.03351 21.7163C9.31211 21.8411 9.62586 21.9066 9.94494 21.9067C10.264 21.9068 10.5778 21.8414 10.8565 21.7167L19.8714 17.6839Z" fill="#FCCA3F"/>
<path d="M10.8696 21.6619C10.5888 21.7875 10.2727 21.8535 9.95114 21.8534C9.62963 21.8533 9.31348 21.7873 9.03276 21.6616L0.0736175 17.6748L0.000961304 17.7364L9.03276 21.7814C9.31349 21.9071 9.62966 21.9731 9.95118 21.9732C10.2727 21.9732 10.5889 21.9073 10.8697 21.7817L19.9537 17.718L19.9314 17.6082L10.8697 21.662L10.8696 21.6619Z" fill="#EEAB37"/>
<defs>
<filter id="filter0_i" x="0.0978928" y="0.0837402" width="7.88735" height="17.5107" filterUnits="userSpaceOnUse" color-interpolation-filters="sRGB">
<feFlood flood-opacity="0" result="BackgroundImageFix"/>
<feBlend mode="normal" in="SourceGraphic" in2="BackgroundImageFix" result="shape"/>
<feColorMatrix in="SourceAlpha" type="matrix" values="0 0 0 0 0 0 0 0 0 0 0 0 0 0 0 0 0 0 127 0" result="hardAlpha"/>
<feOffset/>
<feGaussianBlur stdDeviation="124.619"/>
<feComposite in2="hardAlpha" operator="arithmetic" k2="-1" k3="1"/>
<feColorMatrix type="matrix" values="0 0 0 0 0 0 0 0 0 0 0 0 0 0 0 0 0 0 0.06 0"/>
<feBlend mode="normal" in2="shape" result="effect1_innerShadow"/>
</filter>
<filter id="filter1_i" x="8.02648" y="3.16669" width="4.97789" height="6.171" filterUnits="userSpaceOnUse" color-interpolation-filters="sRGB">
<feFlood flood-opacity="0" result="BackgroundImageFix"/>
<feBlend mode="normal" in="SourceGraphic" in2="BackgroundImageFix" result="shape"/>
<feColorMatrix in="SourceAlpha" type="matrix" values="0 0 0 0 0 0 0 0 0 0 0 0 0 0 0 0 0 0 127 0" result="hardAlpha"/>
<feOffset dx="7.12109" dy="-64.0898"/>
<feGaussianBlur stdDeviation="24.9238"/>
<feComposite in2="hardAlpha" operator="arithmetic" k2="-1" k3="1"/>
<feColorMatrix type="matrix" values="0 0 0 0 0 0 0 0 0 0 0 0 0 0 0 0 0 0 0.09 0"/>
<feBlend mode="normal" in2="shape" result="effect1_innerShadow"/>
</filter>
</defs>
</svg>
