<svg width="22" height="22" viewBox="0 0 22 22" fill="none" xmlns="http://www.w3.org/2000/svg">
<path d="M21.5851 10.0198L11.9797 0.414885C11.4269 -0.138295 10.5297 -0.138295 9.97616 0.414885L7.98155 2.40949L10.5118 4.93975C11.0998 4.74106 11.7741 4.87435 12.2428 5.34306C12.7137 5.81477 12.846 6.49479 12.6425 7.08467L15.081 9.52323C15.671 9.31999 16.3517 9.45147 16.8229 9.92344C17.4814 10.5817 17.4814 11.6486 16.8229 12.3073C16.1642 12.9661 15.0973 12.9661 14.4382 12.3073C13.9429 11.8115 13.8205 11.084 14.0713 10.4738L11.7972 8.19971L11.7969 14.1841C11.9618 14.2656 12.1123 14.3733 12.2428 14.503C12.9013 15.1612 12.9013 16.2282 12.2428 16.8875C11.5841 17.5459 10.5166 17.5459 9.85885 16.8875C9.20031 16.2282 9.20031 15.1613 9.85885 14.5031C10.0167 14.3452 10.2042 14.2201 10.4107 14.1352V8.09495C10.2039 8.01055 10.0163 7.88544 9.85885 7.72705C9.3599 7.22878 9.23993 6.49668 9.4956 5.88403L7.00134 3.38953L0.415079 9.97535C-0.13836 10.529 -0.13836 11.4263 0.415079 11.9796L10.0207 21.5846C10.5737 22.1379 11.4707 22.1379 12.0244 21.5846L21.585 12.0242C22.1383 11.4707 22.1383 10.573 21.585 10.0198" fill="#DE4C36"/>
</svg>
