<svg width="20" height="22" viewBox="0 0 20 22" fill="none" xmlns="http://www.w3.org/2000/svg">
<path d="M1.85647 19.7804L0 0L20 0.00754964L18.1591 19.7653L9.9844 22L1.85647 19.7804ZM16.6537 18.7008L18.2059 1.75909H10.0156L10.078 20.4448L16.6537 18.7008V18.7008ZM9.25117 4.24297H7.26209L7.23869 14.3823L3.37754 13.3631L3.38534 15.6809L9.25117 17.2135V4.24297V4.24297Z" fill="#D4B830"/>
<path d="M10.0154 1.75183H18.2057L16.6534 18.6935L10.0154 20.4375V1.75183ZM16.2322 15.8548L16.7704 9.52053L12.7923 9.95087V6.56858L17.0357 6.55348L17.2073 4.24325L10.8032 4.27345L10.889 12.6839L14.758 12.0422L14.7034 13.9145L10.8032 14.9186L10.8422 17.2137L16.2322 15.8548Z" fill="#D4B830"/>
</svg>
