<svg width="201" height="220" viewBox="0 0 201 220" fill="none" xmlns="http://www.w3.org/2000/svg">
<path d="M20.5 67C15.4099 67 10 65.9486 10 64C10 62.0514 15.4099 61 20.5 61C25.5901 61 31 62.0514 31 64C31 65.9486 25.5901 67 20.5 67ZM20.5 61.5873C14.6727 61.5873 10.6117 62.8589 10.6117 64C10.6117 65.1411 14.6727 66.4127 20.5 66.4127C26.3273 66.4127 30.3883 65.1411 30.3883 64C30.3883 62.8589 26.3273 61.5873 20.5 61.5873Z" fill="#1D2C43"/>
<path opacity="0.1" d="M100.69 0.39964C94.517 -0.433131 88.2381 0.0388596 82.2597 1.78502C76.2814 3.53118 70.7371 6.51254 65.9861 10.5359C61.2352 14.5592 57.3837 19.5348 54.6812 25.14C51.9786 30.7453 50.4854 36.8552 50.2983 43.0738C50.2893 43.2734 50.2864 43.473 50.2834 43.6726C54.1499 43.1185 58.1539 42.6437 62.2645 42.2472C62.7672 31.8873 66.8853 22.0302 73.9042 14.3862C80.923 6.74222 90.3997 1.79381 100.69 0.39964Z" fill="#C21592"/>
<path d="M139 45C125.076 42.7441 109.219 41.5403 92.7049 41.5403C77.5918 41.5403 63.0313 42.547 50 44.4451C50.0031 44.242 50.006 44.0388 50.0149 43.8357C50.3603 32.0435 55.2356 20.8564 63.5988 12.6652C71.9619 4.47405 83.1493 -0.0712271 94.7699 0.000844171C106.391 0.0729154 117.522 4.75662 125.786 13.0509C134.05 21.3452 138.791 32.592 138.994 44.3875C138.997 44.5937 139 44.7968 139 45Z" fill="#6A0793"/>
<path d="M158.631 48.395C152.234 46.6898 145.746 45.3356 139.196 44.3384C128.461 42.7027 117.639 41.68 106.783 41.2755C102.261 41.0938 97.656 41 93 41C89.3098 41 85.6494 41.0586 82.0397 41.1759C71.4508 41.4835 60.8871 42.3612 50.3958 43.805C42.6297 44.8565 34.9389 46.3896 27.3694 48.395C9.72024 53.1931 0 59.6238 0 66.5C0 73.3762 9.72025 79.8069 27.3694 84.605C39.7813 87.9816 55.0846 90.2824 71.7591 91.3376C78.6417 91.7772 85.7568 92 93 92C100.267 92 107.406 91.7743 114.31 91.3347C129.485 90.3703 143.524 88.3743 155.274 85.4726C155.337 85.455 155.396 85.4403 155.459 85.4257C156.252 85.2322 157.033 85.03 157.805 84.8278C158.082 84.7516 158.356 84.6783 158.631 84.605C158.646 84.5988 158.662 84.5939 158.678 84.5903C158.941 84.52 159.2 84.4467 159.459 84.3764C159.978 84.2298 160.491 84.0862 160.994 83.9367C161.018 83.9309 161.039 83.925 161.06 83.9191C161.498 83.7902 161.927 83.6612 162.354 83.5322C162.702 83.4238 163.048 83.3183 163.391 83.2098C163.641 83.1307 163.889 83.0516 164.133 82.9724C164.312 82.9138 164.488 82.8581 164.661 82.7995C164.896 82.7233 165.132 82.6441 165.364 82.565C165.463 82.5328 165.561 82.5005 165.656 82.4653C165.88 82.3921 166.097 82.3159 166.315 82.2397C166.55 82.1576 166.786 82.0726 167.018 81.9905C167.212 81.9231 167.406 81.8528 167.597 81.7824C167.758 81.7209 167.916 81.6622 168.077 81.6036C168.515 81.4424 168.944 81.2753 169.367 81.1112C169.579 81.0262 169.791 80.9441 169.999 80.8591C170.205 80.7771 170.414 80.6921 170.616 80.6071C170.95 80.4693 171.278 80.3315 171.6 80.1938C171.755 80.1234 171.913 80.056 172.065 79.9916C172.181 79.9388 172.294 79.889 172.411 79.8362C172.494 79.8011 172.578 79.7629 172.658 79.7248C172.959 79.59 173.257 79.4523 173.549 79.3145C174.67 78.7869 175.716 78.2476 176.688 77.6966C182.784 74.2643 186 70.4569 186 66.5C186 59.6238 176.28 53.1931 158.631 48.395ZM158.47 84.0422C146.043 87.4217 130.698 89.7226 113.979 90.769C107.179 91.194 100.151 91.4138 93 91.4138C85.8729 91.4138 78.8681 91.1969 72.0899 90.7719C55.3439 89.7285 39.9751 87.4276 27.5303 84.0422C10.1614 79.3174 0.596154 73.089 0.596154 66.5C0.597124 65.9178 0.671233 65.338 0.816801 64.7736C2.33688 58.8295 11.6876 53.2664 27.5303 48.9578C35.0426 46.968 42.6745 45.4438 50.381 44.3941C60.9353 42.9421 71.5629 42.0615 82.2155 41.7562C85.7687 41.6419 89.3636 41.5852 93 41.5862C97.5934 41.5862 102.136 41.6771 106.601 41.8529C117.52 42.2538 128.405 43.2814 139.202 44.9305C145.695 45.9232 152.127 47.2676 158.47 48.9578C174.31 53.2664 183.657 58.8265 185.18 64.7678C185.328 65.3337 185.403 65.9157 185.404 66.5C185.404 73.089 175.839 79.3174 158.47 84.0422Z" fill="#1D2C43"/>
<path d="M186 66.5509C186 70.5044 182.708 74.2448 176.828 77.5857C175.851 78.1421 174.798 78.6866 173.68 79.2192C173.387 79.3583 173.088 79.4974 172.786 79.6335C172.705 79.672 172.621 79.7104 172.537 79.7459C172.421 79.7992 172.307 79.8495 172.19 79.9028C172.038 79.9679 171.88 80.0359 171.724 80.107C171.401 80.246 171.072 80.3851 170.737 80.5242C170.534 80.61 170.324 80.6958 170.118 80.7787C169.909 80.8645 169.697 80.9474 169.484 81.0332C169.06 81.1989 168.629 81.3676 168.189 81.5303C168.028 81.5895 167.869 81.6487 167.708 81.7108C167.517 81.7819 167.322 81.8529 167.128 81.9209C166.895 82.0038 166.658 82.0896 166.422 82.1725C166.204 82.2494 165.986 82.3264 165.761 82.4003C165.666 82.4359 165.567 82.4684 165.468 82.5009C165.235 82.5808 164.999 82.6608 164.762 82.7377C164.589 82.7969 164.413 82.8531 164.233 82.9123C163.988 82.9922 163.74 83.0721 163.489 83.152C163.145 83.2615 162.798 83.368 162.448 83.4775C162.02 83.6077 161.59 83.7379 161.15 83.8681C161.129 83.874 161.108 83.8799 161.084 83.8859C160.579 84.0368 160.065 84.1818 159.544 84.3297C159.284 84.4008 159.024 84.4747 158.761 84.5458C158.744 84.5493 158.728 84.5543 158.713 84.5606C158.438 84.6345 158.163 84.7085 157.885 84.7855C157.113 84.9867 156.327 85.1909 155.531 85.3891C155.468 85.4039 155.409 85.4187 155.346 85.4365C143.878 88.2714 129.808 90.3369 114.237 91.3342C107.416 91.7692 100.305 92 93 92C85.6288 92 78.4578 91.7662 71.5831 91.3223C30.5434 88.6739 0 78.5889 0 66.5508C0.00323123 65.8184 0.116058 65.0904 0.334809 64.3906C0.352769 64.4409 0.370726 64.4883 0.391754 64.5386C4.65885 75.6297 34.9423 84.5931 74.2355 86.78C80.2551 87.1173 86.49 87.2919 92.8714 87.2919C99.2798 87.2919 105.538 87.1144 111.582 86.777C150.842 84.5813 181.096 75.6149 185.348 64.5327C185.42 64.3551 185.483 64.1775 185.536 64C185.84 64.8172 185.996 65.6804 186 66.5509Z" fill="#1D2C43"/>
<path d="M48.5 78C43.4098 78 38 76.9486 38 75C38 73.0514 43.4099 72 48.5 72C53.5901 72 59 73.0514 59 75C59 76.9486 53.5901 78 48.5 78ZM48.5 72.5873C42.6727 72.5873 38.6117 73.8589 38.6117 75C38.6117 76.1411 42.6727 77.4127 48.5 77.4127C54.3273 77.4127 58.3883 76.1411 58.3883 75C58.3883 73.8589 54.3273 72.5873 48.5 72.5873Z" fill="#1D2C43"/>
<path d="M158.5 64C153.41 64 148 62.9486 148 61C148 59.0514 153.41 58 158.5 58C163.59 58 169 59.0514 169 61C169 62.9486 163.59 64 158.5 64ZM158.5 58.5873C152.673 58.5873 148.612 59.8589 148.612 61C148.612 62.1411 152.673 63.4127 158.5 63.4127C164.327 63.4127 168.388 62.1411 168.388 61C168.388 59.8589 164.327 58.5873 158.5 58.5873Z" fill="#1D2C43"/>
<path d="M137.5 78C132.41 78 127 76.9486 127 75C127 73.0514 132.41 72 137.5 72C142.59 72 148 73.0514 148 75C148 76.9486 142.59 78 137.5 78ZM137.5 72.5873C131.673 72.5873 127.612 73.8589 127.612 75C127.612 76.1411 131.673 77.4127 137.5 77.4127C143.327 77.4127 147.388 76.1411 147.388 75C147.388 73.8589 143.327 72.5873 137.5 72.5873Z" fill="#1D2C43"/>
<path d="M93 84C88.1522 84 83 82.9486 83 81C83 79.0514 88.1522 78 93 78C97.8478 78 103 79.0514 103 81C103 82.9486 97.8478 84 93 84ZM93 78.5873C87.4501 78.5873 83.5826 79.8589 83.5826 81C83.5826 82.1411 87.4501 83.4127 93 83.4127C98.5498 83.4127 102.417 82.1411 102.417 81C102.417 79.8589 98.5498 78.5873 93 78.5873Z" fill="#1D2C43"/>
<path d="M100.5 147C107.404 147 113 141.404 113 134.5C113 127.596 107.404 122 100.5 122C93.5964 122 88 127.596 88 134.5C88 141.404 93.5964 147 100.5 147Z" fill="#2F2E41"/>
<path d="M95.7534 142.509L89.6542 145.559L91.3589 148.96L97.4582 145.909L95.7534 142.509Z" fill="#2F2E41"/>
<path d="M92.163 148.614C92.5247 148.067 91.6321 146.841 90.1692 145.878C88.7064 144.915 87.2273 144.578 86.8656 145.126C86.5039 145.674 87.3965 146.899 88.8594 147.862C90.3222 148.826 91.8013 149.162 92.163 148.614Z" fill="#2F2E41"/>
<path d="M105.284 142.509L103.58 145.909L109.679 148.96L111.384 145.559L105.284 142.509Z" fill="#2F2E41"/>
<path d="M112.178 147.862C113.641 146.899 114.534 145.674 114.172 145.126C113.811 144.578 112.332 144.915 110.869 145.878C109.406 146.841 108.513 148.067 108.875 148.614C109.237 149.162 110.716 148.826 112.178 147.862Z" fill="#2F2E41"/>
<path d="M99.5 136C101.985 136 104 133.985 104 131.5C104 129.015 101.985 127 99.5 127C97.0147 127 95 129.015 95 131.5C95 133.985 97.0147 136 99.5 136Z" fill="white"/>
<path d="M102.03 134.027C102.585 133.472 102.582 132.57 102.023 132.011C101.464 131.453 100.561 131.45 100.005 132.004C99.4501 132.559 99.4533 133.461 100.012 134.02C100.572 134.578 101.475 134.581 102.03 134.027Z" fill="#3F3D56"/>
<path d="M109.994 120.807C110.177 116.156 106.298 112.217 101.331 112.009C96.3644 111.8 92.1897 115.401 92.0069 120.052C91.8241 124.703 95.2768 125.76 100.244 125.968C105.211 126.177 109.811 125.458 109.994 120.807Z" fill="#6C63FF"/>
<path d="M117.629 140.839C118.453 140.132 117.294 137.433 115.04 134.81C112.786 132.188 110.29 130.635 109.466 131.341C108.641 132.048 109.801 134.747 112.055 137.37C114.309 139.993 116.805 141.546 117.629 140.839Z" fill="#2F2E41"/>
<path d="M89.0182 137.37C91.2724 134.747 92.4315 132.048 91.6072 131.341C90.7829 130.635 88.2873 132.188 86.0331 134.81C83.7789 137.433 82.6198 140.132 83.4441 140.839C84.2684 141.546 86.764 139.993 89.0182 137.37Z" fill="#2F2E41"/>
<path d="M103.951 139.533C104.094 140.3 103.92 141.092 103.467 141.733C103.013 142.374 102.319 142.813 101.535 142.952C100.752 143.092 99.9442 142.921 99.2895 142.478C98.6347 142.034 98.1868 141.353 98.0442 140.586L98.0431 140.581C97.7477 138.983 99.0092 138.417 100.641 138.128C102.272 137.839 103.656 137.935 103.951 139.533Z" fill="white"/>
<path d="M79.5 148C79.3674 148 79.2402 147.936 79.1465 147.822C79.0527 147.709 79 147.554 79 147.393V111.607C79 111.446 79.0527 111.291 79.1464 111.178C79.2402 111.064 79.3674 111 79.5 111C79.6326 111 79.7598 111.064 79.8535 111.178C79.9473 111.291 80 111.446 80 111.607V147.393C80 147.554 79.9473 147.709 79.8535 147.822C79.7598 147.936 79.6326 148 79.5 148Z" fill="#CCCCCC"/>
<path d="M70.5 179C70.3674 179 70.2402 178.937 70.1465 178.824C70.0527 178.712 70 178.559 70 178.4V152.6C70 152.441 70.0527 152.288 70.1464 152.176C70.2402 152.063 70.3674 152 70.5 152C70.6326 152 70.7598 152.063 70.8536 152.176C70.9473 152.288 71 152.441 71 152.6V178.4C71 178.559 70.9473 178.712 70.8535 178.824C70.7598 178.937 70.6326 179 70.5 179Z" fill="#CCCCCC"/>
<path d="M93.5 158C93.3674 158 93.2402 157.938 93.1465 157.827C93.0527 157.716 93 157.566 93 157.41V122.59C93 122.434 93.0527 122.284 93.1464 122.173C93.2402 122.062 93.3674 122 93.5 122C93.6326 122 93.7598 122.062 93.8535 122.173C93.9473 122.284 94 122.434 94 122.59V157.41C94 157.566 93.9473 157.716 93.8535 157.827C93.7598 157.938 93.6326 158 93.5 158Z" fill="#CCCCCC"/>
<path d="M84.5 183C84.3674 183 84.2402 182.939 84.1465 182.831C84.0527 182.723 84 182.576 84 182.423V168.577C84 168.424 84.0527 168.277 84.1464 168.169C84.2402 168.061 84.3674 168 84.5 168C84.6326 168 84.7598 168.061 84.8535 168.169C84.9473 168.277 85 168.424 85 168.577V182.423C85 182.576 84.9473 182.723 84.8535 182.831C84.7598 182.939 84.6326 183 84.5 183Z" fill="#CCCCCC"/>
<path d="M97 110C96.7348 110 96.4804 109.939 96.2929 109.831C96.1054 109.723 96 109.576 96 109.423V95.5769C96 95.4239 96.1053 95.2772 96.2929 95.169C96.4804 95.0608 96.7348 95 97 95C97.2652 95 97.5196 95.0608 97.7071 95.169C97.8946 95.2772 98 95.4239 98 95.5769V109.423C98 109.576 97.8946 109.723 97.7071 109.831C97.5196 109.939 97.2652 110 97 110V110Z" fill="#CCCCCC"/>
<path d="M67.5 116C67.3674 116 67.2402 115.939 67.1465 115.831C67.0527 115.723 67 115.576 67 115.423V101.577C67 101.424 67.0527 101.277 67.1464 101.169C67.2402 101.061 67.3674 101 67.5 101C67.6326 101 67.7598 101.061 67.8536 101.169C67.9473 101.277 68 101.424 68 101.577V115.423C68 115.576 67.9473 115.723 67.8535 115.831C67.7598 115.939 67.6326 116 67.5 116Z" fill="#CCCCCC"/>
<path d="M119 118C118.735 118 118.48 117.935 118.293 117.82C118.105 117.704 118 117.548 118 117.385V102.615C118 102.452 118.105 102.296 118.293 102.18C118.48 102.065 118.735 102 119 102C119.265 102 119.52 102.065 119.707 102.18C119.895 102.296 120 102.452 120 102.615V117.385C120 117.548 119.895 117.704 119.707 117.82C119.52 117.935 119.265 118 119 118Z" fill="#CCCCCC"/>
<path d="M117.5 162C117.367 162 117.24 161.939 117.146 161.83C117.053 161.721 117 161.573 117 161.419V144.581C117 144.427 117.053 144.279 117.146 144.17C117.24 144.061 117.367 144 117.5 144C117.633 144 117.76 144.061 117.854 144.17C117.947 144.279 118 144.427 118 144.581V161.419C118 161.573 117.947 161.721 117.854 161.83C117.76 161.939 117.633 162 117.5 162Z" fill="#CCCCCC"/>
<path d="M105.5 178C105.367 178 105.24 177.937 105.146 177.824C105.053 177.712 105 177.559 105 177.4V151.6C105 151.441 105.053 151.288 105.146 151.176C105.24 151.063 105.367 151 105.5 151C105.633 151 105.76 151.063 105.854 151.176C105.947 151.288 106 151.441 106 151.6V177.4C106 177.559 105.947 177.712 105.854 177.824C105.76 177.937 105.633 178 105.5 178Z" fill="#CCCCCC"/>
<path d="M108.5 134C108.367 134 108.24 133.938 108.146 133.827C108.053 133.716 108 133.566 108 133.41V98.5902C108 98.4336 108.053 98.2835 108.146 98.1729C108.24 98.0622 108.367 98 108.5 98C108.633 98 108.76 98.0622 108.854 98.1729C108.947 98.2835 109 98.4336 109 98.5902V133.41C109 133.566 108.947 133.716 108.854 133.827C108.76 133.938 108.633 134 108.5 134Z" fill="#CCCCCC"/>
<path d="M181.421 208.707C182.275 207.993 181.121 205.212 178.844 202.495C176.566 199.778 174.028 198.154 173.174 198.869C172.32 199.583 173.474 202.364 175.752 205.081C178.029 207.798 180.567 209.421 181.421 208.707Z" fill="#2F2E41"/>
<path d="M175.821 205.617C178.065 198.894 174.427 191.628 167.696 189.387C160.965 187.146 153.69 190.779 151.446 197.502C149.202 204.225 152.84 211.492 159.571 213.733C166.302 215.974 173.577 212.341 175.821 205.617Z" fill="#2F2E41"/>
<path d="M169 212H165V219H169V212Z" fill="#2F2E41"/>
<path d="M161 212H157V219H161V212Z" fill="#2F2E41"/>
<path d="M166 220C167.657 220 169 219.328 169 218.5C169 217.672 167.657 217 166 217C164.343 217 163 217.672 163 218.5C163 219.328 164.343 220 166 220Z" fill="#2F2E41"/>
<path d="M158 220C159.657 220 161 219.328 161 218.5C161 217.672 159.657 217 158 217C156.343 217 155 217.672 155 218.5C155 219.328 156.343 220 158 220Z" fill="#2F2E41"/>
<path d="M159.183 185.36C160.337 180.757 165.433 178.048 170.565 179.31C175.696 180.571 178.92 185.326 177.766 189.929C176.611 194.533 172.781 194.548 167.65 193.286C162.518 192.024 158.028 189.964 159.183 185.36Z" fill="#CCCCCC"/>
<path d="M154.968 198.355C155.445 197.35 153.233 195.304 150.028 193.786C146.823 192.268 143.837 191.851 143.36 192.856C142.883 193.861 145.094 195.907 148.3 197.426C151.505 198.944 154.49 199.36 154.968 198.355Z" fill="#2F2E41"/>
<path d="M161.5 203C163.985 203 166 201.209 166 199C166 196.791 163.985 195 161.5 195C159.015 195 157 196.791 157 199C157 201.209 159.015 203 161.5 203Z" fill="white"/>
<path d="M160 199C160.552 199 161 198.328 161 197.5C161 196.672 160.552 196 160 196C159.448 196 159 196.672 159 197.5C159 198.328 159.448 199 160 199Z" fill="#3F3D56"/>
<path d="M161.5 210C162.328 210 163 209.105 163 208C163 206.895 162.328 206 161.5 206C160.672 206 160 206.895 160 208C160 209.105 160.672 210 161.5 210Z" fill="white"/>
<path d="M200.702 220H130.298C130.219 220 130.143 219.947 130.087 219.854C130.031 219.76 130 219.633 130 219.5C130 219.367 130.031 219.24 130.087 219.146C130.143 219.053 130.219 219 130.298 219H200.702C200.781 219 200.857 219.053 200.913 219.146C200.969 219.24 201 219.367 201 219.5C201 219.633 200.969 219.76 200.913 219.854C200.857 219.947 200.781 220 200.702 220Z" fill="#3F3D56"/>
</svg>
