<svg width="182" height="200" viewBox="0 0 182 200" fill="none" xmlns="http://www.w3.org/2000/svg">
<g clip-path="url(#clip0)">
<path d="M126.379 40.5398C113.763 38.5264 99.3958 37.4521 84.4332 37.4521C70.7398 37.4521 57.5472 38.3505 45.7401 40.0446C45.7428 39.8633 45.7455 39.682 45.7535 39.5007C46.0666 28.9762 50.4839 18.9916 58.0613 11.681C65.6388 4.37037 75.7752 0.313699 86.3042 0.378023C96.8331 0.442347 106.919 4.62256 114.407 12.0252C121.894 19.4279 126.189 29.4657 126.374 39.9932C126.377 40.1772 126.379 40.3585 126.379 40.5398Z" fill="#116CFF"/>
<g opacity="0.1">
<path opacity="0.1" d="M91.3476 0.362989C85.7477 -0.393408 80.0513 0.0352958 74.6276 1.62131C69.2039 3.20733 64.174 5.91527 59.8639 9.56963C55.5538 13.224 52.0596 17.7432 49.6078 22.8344C47.156 27.9256 45.8013 33.4752 45.6316 39.1234C45.6234 39.3047 45.6208 39.4861 45.6181 39.6674C49.1259 39.1641 52.7583 38.7328 56.4875 38.3727C56.9437 28.9629 60.6797 20.0098 67.0473 13.0668C73.4149 6.12389 82.0123 1.6293 91.3476 0.362989V0.362989Z" fill="white"/>
</g>
<path d="M144.018 43.7386C138.211 42.1642 132.32 40.9138 126.374 39.9932C116.628 38.4829 106.802 37.5387 96.9467 37.1652C92.8413 36.9974 88.6603 36.9109 84.4332 36.9109C81.083 36.9109 77.7597 36.965 74.4825 37.0732C64.8691 37.3573 55.2784 38.1676 45.7536 39.5007C38.7028 40.4716 31.7205 41.887 24.8482 43.7386C8.82486 48.1686 1.0252e-05 54.106 1.0252e-05 60.4547C1.0252e-05 66.8035 8.82487 72.7409 24.8482 77.1709C36.1168 80.2884 50.0104 82.4128 65.149 83.387C71.3975 83.7929 77.8572 83.9986 84.4332 83.9986C91.0309 83.9986 97.5123 83.7902 103.78 83.3843C117.557 82.494 130.303 80.6511 140.971 77.9719C141.028 77.9557 141.082 77.9422 141.139 77.9286C141.859 77.75 142.568 77.5633 143.269 77.3766C143.52 77.3062 143.769 77.2385 144.018 77.1709C144.032 77.1652 144.047 77.1606 144.061 77.1574C144.3 77.0924 144.535 77.0248 144.771 76.9598C145.241 76.8245 145.707 76.6919 146.164 76.5539C146.186 76.5485 146.205 76.5431 146.224 76.5376C146.621 76.4186 147.011 76.2995 147.398 76.1804C147.715 76.0803 148.029 75.9829 148.34 75.8827C148.567 75.8097 148.792 75.7366 149.014 75.6635C149.176 75.6094 149.336 75.558 149.493 75.5039C149.707 75.4335 149.92 75.3604 150.131 75.2874C150.221 75.2576 150.31 75.2278 150.397 75.1954C150.6 75.1277 150.797 75.0574 150.995 74.987C151.209 74.9112 151.422 74.8327 151.633 74.757C151.809 74.6947 151.985 74.6298 152.158 74.5648C152.304 74.508 152.448 74.4539 152.594 74.3997C152.992 74.2509 153.382 74.0966 153.766 73.9451C153.958 73.8666 154.15 73.7909 154.34 73.7124C154.526 73.6366 154.716 73.5581 154.9 73.4796C155.203 73.3524 155.5 73.2252 155.793 73.0981C155.934 73.0331 156.077 72.9709 156.215 72.9114C156.321 72.8626 156.423 72.8166 156.529 72.7679C156.605 72.7355 156.681 72.7003 156.754 72.6651C157.027 72.5406 157.297 72.4134 157.563 72.2862C158.58 71.7991 159.53 71.3012 160.412 70.7924C165.946 67.6235 168.866 64.1081 168.866 60.4547C168.866 54.106 160.042 48.1686 144.018 43.7386ZM143.872 76.6513C132.59 79.7715 118.659 81.8959 103.479 82.862C97.3066 83.2544 90.9255 83.4574 84.4332 83.4574C77.9627 83.4574 71.6031 83.2571 65.4493 82.8647C50.2459 81.9013 36.2927 79.7769 24.9944 76.6513C9.22539 72.2889 0.541249 66.5383 0.541249 60.4547C0.54213 59.9172 0.609412 59.3818 0.741571 58.8608C2.12162 53.3726 10.611 48.2363 24.9944 44.2582C31.8147 42.421 38.7435 41.0137 45.7401 40.0446C55.3222 38.704 64.9708 37.8909 74.6422 37.609C77.8681 37.5035 81.1318 37.4512 84.4332 37.4521C88.6035 37.4521 92.7277 37.536 96.7816 37.6984C106.694 38.0685 116.577 39.0172 126.379 40.5399C132.274 41.4564 138.114 42.6977 143.872 44.2582C158.253 48.2363 166.739 53.3699 168.122 58.8554C168.257 59.3779 168.325 59.9152 168.325 60.4547C168.325 66.5383 159.641 72.2889 143.872 76.6513V76.6513Z" fill="#3F3D56"/>
<path d="M168.712 60.701C168.712 64.3165 165.733 67.7371 160.412 70.7924C159.527 71.3011 158.575 71.7991 157.563 72.2862C157.297 72.4134 157.027 72.5406 156.754 72.6651C156.68 72.7002 156.605 72.7354 156.529 72.7679C156.423 72.8166 156.321 72.8626 156.215 72.9113C156.077 72.9709 155.934 73.0331 155.793 73.098C155.501 73.2252 155.203 73.3524 154.9 73.4796C154.716 73.5581 154.526 73.6366 154.34 73.7123C154.15 73.7908 153.958 73.8666 153.766 73.9451C153.382 74.0966 152.992 74.2509 152.594 74.3997C152.448 74.4538 152.304 74.508 152.158 74.5648C151.985 74.6297 151.809 74.6947 151.633 74.7569C151.422 74.8327 151.209 74.9112 150.995 74.987C150.797 75.0573 150.6 75.1277 150.397 75.1953C150.31 75.2278 150.221 75.2576 150.131 75.2873C149.92 75.3604 149.707 75.4335 149.493 75.5038C149.336 75.558 149.176 75.6094 149.014 75.6635C148.792 75.7366 148.567 75.8096 148.34 75.8827C148.029 75.9828 147.715 76.0803 147.398 76.1804C147.011 76.2995 146.621 76.4185 146.224 76.5376C146.205 76.543 146.186 76.5484 146.164 76.5539C145.707 76.6919 145.241 76.8245 144.77 76.9598C144.535 77.0247 144.3 77.0924 144.061 77.1573C144.047 77.1606 144.032 77.1651 144.018 77.1709C143.769 77.2385 143.52 77.3062 143.269 77.3765C142.57 77.5605 141.859 77.7473 141.139 77.9286C141.082 77.9421 141.028 77.9557 140.971 77.9719C130.593 80.5644 117.86 82.4533 103.769 83.3653C97.5962 83.7631 91.1608 83.9742 84.5496 83.9742C77.8789 83.9742 71.3893 83.7604 65.1678 83.3545C28.028 80.9325 0.387027 71.7098 0.387027 60.701C0.389951 60.0311 0.492056 59.3654 0.69002 58.7254C0.706273 58.7715 0.722524 58.8148 0.741554 58.8608C4.60316 69.0036 32.0089 77.2006 67.5683 79.2005C73.0158 79.509 78.6582 79.6687 84.4332 79.6687C90.2326 79.6687 95.8966 79.5063 101.366 79.1978C136.895 77.1898 164.274 68.99 168.122 58.8553C168.187 58.693 168.244 58.5306 168.293 58.3682C168.567 59.1155 168.709 59.9049 168.712 60.701V60.701Z" fill="#3F3D56"/>
<path d="M24.8075 57.788C20.3037 57.788 15.5169 56.8191 15.5169 55.0232C15.5169 53.2273 20.3037 52.2583 24.8075 52.2583C29.3113 52.2583 34.098 53.2273 34.098 55.0232C34.098 56.8191 29.3113 57.788 24.8075 57.788ZM24.8075 52.7996C19.6514 52.7996 16.0582 53.9715 16.0582 55.0232C16.0582 56.0749 19.6514 57.2468 24.8075 57.2468C29.9636 57.2468 33.5568 56.0749 33.5568 55.0232C33.5568 53.9715 29.9636 52.7996 24.8075 52.7996V52.7996Z" fill="#3F3D56"/>
<path d="M44.0214 70.5071C39.5176 70.5071 34.7309 69.5382 34.7309 67.7423C34.7309 65.9464 39.5176 64.9774 44.0214 64.9774C48.5253 64.9774 53.312 65.9464 53.312 67.7423C53.312 69.5382 48.5253 70.5071 44.0214 70.5071ZM44.0214 65.5187C38.8654 65.5187 35.2721 66.6906 35.2721 67.7423C35.2721 68.794 38.8654 69.9659 44.0214 69.9659C49.1775 69.9659 52.7708 68.794 52.7708 67.7423C52.7708 66.6906 49.1775 65.5187 44.0214 65.5187V65.5187Z" fill="#3F3D56"/>
<path d="M143.88 57.788C139.376 57.788 134.589 56.8191 134.589 55.0232C134.589 53.2273 139.376 52.2583 143.88 52.2583C148.384 52.2583 153.171 53.2273 153.171 55.0232C153.171 56.8191 148.384 57.788 143.88 57.788ZM143.88 52.7996C138.724 52.7996 135.131 53.9715 135.131 55.0232C135.131 56.0749 138.724 57.2468 143.88 57.2468C149.036 57.2468 152.629 56.0749 152.629 55.0232C152.629 53.9715 149.036 52.7996 143.88 52.7996V52.7996Z" fill="#3F3D56"/>
<path d="M124.666 70.5071C120.162 70.5071 115.375 69.5382 115.375 67.7423C115.375 65.9464 120.162 64.9774 124.666 64.9774C129.17 64.9774 133.957 65.9464 133.957 67.7423C133.957 69.5382 129.17 70.5071 124.666 70.5071ZM124.666 65.5187C119.51 65.5187 115.917 66.6906 115.917 67.7423C115.917 68.794 119.51 69.9659 124.666 69.9659C129.822 69.9659 133.415 68.794 133.415 67.7423C133.415 66.6906 129.822 65.5187 124.666 65.5187V65.5187Z" fill="#3F3D56"/>
<path d="M84.3437 76.4608C79.8399 76.4608 75.0532 75.4918 75.0532 73.6959C75.0532 71.9 79.8399 70.931 84.3437 70.931C88.8476 70.931 93.6343 71.9 93.6343 73.6959C93.6343 75.4918 88.8476 76.4608 84.3437 76.4608ZM84.3437 71.4723C79.1876 71.4723 75.5944 72.6442 75.5944 73.6959C75.5944 74.7476 79.1876 75.9195 84.3437 75.9195C89.4998 75.9195 93.093 74.7476 93.093 73.6959C93.093 72.6442 89.4998 71.4723 84.3437 71.4723V71.4723Z" fill="#3F3D56"/>
<path d="M91.1927 133.339C97.4718 133.339 102.562 128.248 102.562 121.969C102.562 115.69 97.4718 110.6 91.1927 110.6C84.9136 110.6 79.8234 115.69 79.8234 121.969C79.8234 128.248 84.9136 133.339 91.1927 133.339Z" fill="#2F2E41"/>
<path d="M86.8693 129.439L81.336 132.21L82.8826 135.298L88.4159 132.527L86.8693 129.439Z" fill="#2F2E41"/>
<path d="M83.6121 134.985C83.9402 134.487 83.1304 133.374 81.8033 132.499C80.4761 131.624 79.1343 131.318 78.8061 131.816C78.478 132.314 79.2878 133.427 80.6149 134.302C81.9421 135.177 83.2839 135.483 83.6121 134.985Z" fill="#2F2E41"/>
<path d="M95.5161 129.439L93.9695 132.527L99.5028 135.298L101.049 132.21L95.5161 129.439Z" fill="#2F2E41"/>
<path d="M101.77 134.302C103.098 133.427 103.907 132.314 103.579 131.816C103.251 131.318 101.909 131.624 100.582 132.499C99.255 133.374 98.4452 134.487 98.7733 134.985C99.1015 135.483 100.443 135.177 101.77 134.302Z" fill="#2F2E41"/>
<path d="M90.3968 123.074C92.5428 123.074 94.2825 121.334 94.2825 119.188C94.2825 117.042 92.5428 115.303 90.3968 115.303C88.2507 115.303 86.511 117.042 86.511 119.188C86.511 121.334 88.2507 123.074 90.3968 123.074Z" fill="white"/>
<path d="M91.342 118.443C91.8457 117.94 91.8428 117.12 91.3355 116.613C90.8282 116.105 90.0086 116.103 89.5049 116.606C89.0012 117.11 89.0041 117.93 89.5114 118.437C90.0187 118.944 90.8383 118.947 91.342 118.443Z" fill="#3F3D56"/>
<path d="M100.162 109.601C100.332 105.392 96.7049 101.826 92.059 101.638C87.4131 101.449 83.5082 104.708 83.3373 108.917C83.1663 113.126 86.3958 114.083 91.0417 114.271C95.6876 114.46 99.9905 113.81 100.162 109.601Z" fill="#116CFF"/>
<path d="M106.715 127.923C107.463 127.281 106.411 124.829 104.366 122.447C102.321 120.065 100.057 118.654 99.3094 119.296C98.5616 119.938 99.6132 122.39 101.658 124.772C103.703 127.154 105.967 128.565 106.715 127.923Z" fill="#2F2E41"/>
<path d="M80.759 124.772C82.804 122.39 83.8556 119.938 83.1078 119.296C82.36 118.654 80.0959 120.065 78.0509 122.447C76.0058 124.829 74.9543 127.281 75.7021 127.923C76.4499 128.565 78.714 127.154 80.759 124.772Z" fill="#2F2E41"/>
<path d="M94.3153 126.45C94.4384 127.126 94.2878 127.823 93.8969 128.388C93.5059 128.953 92.9066 129.339 92.2307 129.462C91.5547 129.585 90.8576 129.435 90.2926 129.044C89.7277 128.653 89.3412 128.054 89.2181 127.378L89.2172 127.373C88.9623 125.965 90.0508 125.467 91.4586 125.212C92.8664 124.957 94.0605 125.042 94.3153 126.45Z" fill="white"/>
<path d="M71.9847 134.063C71.8412 134.063 71.7035 134.006 71.602 133.905C71.5005 133.803 71.4435 133.665 71.4435 133.522V101.589C71.4435 101.445 71.5005 101.308 71.602 101.206C71.7035 101.105 71.8412 101.048 71.9847 101.048C72.1283 101.048 72.2659 101.105 72.3674 101.206C72.4689 101.308 72.526 101.445 72.526 101.589V133.522C72.526 133.665 72.4689 133.803 72.3674 133.905C72.2659 134.006 72.1283 134.063 71.9847 134.063Z" fill="#CCCCCC"/>
<path d="M63.8662 162.749C63.7226 162.749 63.585 162.692 63.4834 162.59C63.3819 162.489 63.3249 162.351 63.3249 162.208V138.934C63.3249 138.791 63.3819 138.653 63.4834 138.552C63.5849 138.45 63.7226 138.393 63.8662 138.393C64.0097 138.393 64.1474 138.45 64.2489 138.552C64.3504 138.653 64.4074 138.791 64.4074 138.934V162.208C64.4074 162.351 64.3504 162.489 64.2489 162.59C64.1474 162.692 64.0097 162.749 63.8662 162.749V162.749Z" fill="#CCCCCC"/>
<path d="M84.7038 143.535C84.5603 143.535 84.4226 143.478 84.3211 143.376C84.2196 143.275 84.1626 143.137 84.1626 142.994V111.061C84.1626 110.917 84.2196 110.779 84.3211 110.678C84.4226 110.576 84.5603 110.519 84.7038 110.519C84.8474 110.519 84.9851 110.576 85.0866 110.678C85.1881 110.779 85.2451 110.917 85.2451 111.061V142.994C85.2451 143.137 85.1881 143.275 85.0866 143.376C84.9851 143.478 84.8474 143.535 84.7038 143.535Z" fill="#CCCCCC"/>
<path d="M76.8559 166.537C76.7123 166.537 76.5747 166.48 76.4732 166.379C76.3717 166.277 76.3147 166.14 76.3146 165.996V153.007C76.3146 152.863 76.3717 152.725 76.4732 152.624C76.5747 152.522 76.7123 152.465 76.8559 152.465C76.9994 152.465 77.1371 152.522 77.2386 152.624C77.3401 152.725 77.3971 152.863 77.3971 153.007V165.996C77.3971 166.14 77.3401 166.277 77.2386 166.379C77.1371 166.48 76.9994 166.537 76.8559 166.537V166.537Z" fill="#CCCCCC"/>
<path d="M87.9513 99.9651C87.8077 99.9651 87.6701 99.9081 87.5686 99.8066C87.4671 99.7051 87.41 99.5674 87.41 99.4239V86.4342C87.41 86.2906 87.467 86.153 87.5686 86.0515C87.6701 85.95 87.8077 85.8929 87.9513 85.8929C88.0948 85.8929 88.2325 85.95 88.334 86.0515C88.4355 86.153 88.4925 86.2906 88.4925 86.4342V99.4239C88.4925 99.5674 88.4355 99.7051 88.334 99.8066C88.2325 99.9081 88.0948 99.9651 87.9513 99.9651V99.9651Z" fill="#CCCCCC"/>
<path d="M60.8893 105.648C60.7458 105.648 60.6081 105.591 60.5066 105.49C60.4051 105.388 60.3481 105.25 60.3481 105.107V92.1172C60.3481 91.9736 60.4051 91.836 60.5066 91.7345C60.6081 91.633 60.7458 91.5759 60.8893 91.5759C61.0329 91.5759 61.1706 91.633 61.2721 91.7345C61.3736 91.836 61.4306 91.9736 61.4306 92.1172V105.107C61.4306 105.25 61.3736 105.388 61.2721 105.49C61.1706 105.591 61.0329 105.648 60.8893 105.648V105.648Z" fill="#CCCCCC"/>
<path d="M107.977 107.001C107.834 107.001 107.696 106.944 107.594 106.843C107.493 106.741 107.436 106.604 107.436 106.46V93.4703C107.436 93.3267 107.493 93.1891 107.594 93.0876C107.696 92.9861 107.834 92.929 107.977 92.929C108.121 92.929 108.258 92.9861 108.36 93.0876C108.461 93.1891 108.518 93.3267 108.518 93.4703V106.46C108.518 106.604 108.461 106.741 108.36 106.843C108.258 106.944 108.121 107.001 107.977 107.001Z" fill="#CCCCCC"/>
<path d="M106.895 147.594C106.751 147.594 106.613 147.537 106.512 147.436C106.41 147.334 106.353 147.196 106.353 147.053V131.357C106.353 131.213 106.41 131.076 106.512 130.974C106.613 130.873 106.751 130.816 106.895 130.816C107.038 130.816 107.176 130.873 107.277 130.974C107.379 131.076 107.436 131.213 107.436 131.357V147.053C107.436 147.196 107.379 147.334 107.277 147.436C107.176 147.537 107.038 147.594 106.895 147.594Z" fill="#CCCCCC"/>
<path d="M96.0699 161.396C95.9263 161.396 95.7886 161.339 95.6871 161.237C95.5856 161.136 95.5286 160.998 95.5286 160.854V137.581C95.5286 137.438 95.5856 137.3 95.6871 137.199C95.7886 137.097 95.9263 137.04 96.0699 137.04C96.2134 137.04 96.3511 137.097 96.4526 137.199C96.5541 137.3 96.6111 137.438 96.6111 137.581V160.854C96.6111 160.998 96.5541 161.136 96.4526 161.237C96.3511 161.339 96.2134 161.396 96.0699 161.396Z" fill="#CCCCCC"/>
<path d="M98.2348 121.615C98.0913 121.615 97.9536 121.558 97.8521 121.456C97.7506 121.355 97.6936 121.217 97.6936 121.073V89.1404C97.6936 88.9968 97.7506 88.8592 97.8521 88.7577C97.9536 88.6562 98.0913 88.5991 98.2348 88.5991C98.3783 88.5991 98.516 88.6562 98.6175 88.7577C98.719 88.8592 98.776 88.9968 98.776 89.1404V121.073C98.776 121.217 98.719 121.355 98.6175 121.456C98.516 121.558 98.3783 121.615 98.2348 121.615Z" fill="#CCCCCC"/>
<path d="M164.589 189.566C165.364 188.918 164.317 186.392 162.25 183.924C160.184 181.456 157.881 179.982 157.107 180.63C156.332 181.279 157.379 183.805 159.445 186.273C161.511 188.74 163.814 190.215 164.589 189.566Z" fill="#2F2E41"/>
<path d="M159.508 186.76C161.544 180.654 158.244 174.053 152.137 172.018C146.031 169.982 139.43 173.283 137.395 179.389C135.359 185.495 138.659 192.096 144.766 194.131C150.872 196.167 157.473 192.867 159.508 186.76Z" fill="#2F2E41"/>
<path d="M153.385 192.221H149.844V198.565H153.385V192.221Z" fill="#2F2E41"/>
<path d="M146.303 192.221H142.762V198.565H146.303V192.221Z" fill="#2F2E41"/>
<path d="M150.434 199.745C152.064 199.745 153.385 199.25 153.385 198.639C153.385 198.028 152.064 197.533 150.434 197.533C148.804 197.533 147.483 198.028 147.483 198.639C147.483 199.25 148.804 199.745 150.434 199.745Z" fill="#2F2E41"/>
<path d="M143.353 199.598C144.982 199.598 146.303 199.103 146.303 198.491C146.303 197.88 144.982 197.385 143.353 197.385C141.723 197.385 140.402 197.88 140.402 198.491C140.402 199.103 141.723 199.598 143.353 199.598Z" fill="#2F2E41"/>
<path d="M144.792 168.424C145.833 164.233 150.426 161.767 155.052 162.915C159.678 164.064 162.585 168.393 161.544 172.584C160.504 176.775 157.051 176.788 152.425 175.64C147.799 174.491 143.751 172.615 144.792 168.424Z" fill="#CCCCCC"/>
<path d="M140.59 180.164C141.022 179.251 139.016 177.393 136.108 176.014C133.2 174.635 130.492 174.257 130.059 175.169C129.626 176.082 131.632 177.94 134.54 179.32C137.448 180.699 140.157 181.077 140.59 180.164Z" fill="#2F2E41"/>
<path d="M146.709 184.501C148.855 184.501 150.595 182.761 150.595 180.615C150.595 178.469 148.855 176.73 146.709 176.73C144.563 176.73 142.823 178.469 142.823 180.615C142.823 182.761 144.563 184.501 146.709 184.501Z" fill="white"/>
<path d="M145.112 180.518C145.827 180.518 146.407 179.938 146.407 179.223C146.407 178.507 145.827 177.927 145.112 177.927C144.397 177.927 143.817 178.507 143.817 179.223C143.817 179.938 144.397 180.518 145.112 180.518Z" fill="#3F3D56"/>
<path d="M146.676 190.352C147.572 190.352 148.299 189.625 148.299 188.728C148.299 187.832 147.572 187.105 146.676 187.105C145.779 187.105 145.052 187.832 145.052 188.728C145.052 189.625 145.779 190.352 146.676 190.352Z" fill="white"/>
<path d="M181.729 199.824H117.863C117.791 199.824 117.723 199.795 117.672 199.744C117.621 199.694 117.593 199.625 117.593 199.553C117.593 199.481 117.621 199.412 117.672 199.362C117.723 199.311 117.791 199.282 117.863 199.282H181.729C181.801 199.282 181.87 199.311 181.921 199.362C181.971 199.412 182 199.481 182 199.553C182 199.625 181.971 199.694 181.921 199.744C181.87 199.795 181.801 199.824 181.729 199.824Z" fill="#3F3D56"/>
</g>
<defs>
<clipPath id="clip0">
<rect width="182" height="199.824" fill="white"/>
</clipPath>
</defs>
</svg>
