<svg width="22" height="22" viewBox="0 0 22 22" fill="none" xmlns="http://www.w3.org/2000/svg">
<path d="M17.9695 7.12936C17.7375 7.04097 17.5055 6.9575 17.2734 6.87893C17.3121 6.69724 17.3465 6.51556 17.3809 6.33387C17.9094 3.40724 17.5613 1.05513 16.3883 0.279282C15.2582 -0.462197 13.4148 0.308745 11.55 2.1649C11.3652 2.34658 11.1848 2.53809 11.0129 2.7296C10.8969 2.60193 10.7766 2.47425 10.6563 2.35149C8.70117 0.36767 6.7418 -0.467107 5.56875 0.313655C4.44297 1.06004 4.10781 3.27466 4.58047 6.04415C4.62773 6.31914 4.6793 6.58921 4.73945 6.8642C4.46445 6.95259 4.19375 7.05079 3.94023 7.15391C1.6457 8.06235 0 9.4962 0 10.9792C0 12.5112 1.75313 14.0482 4.13789 14.9812C4.33125 15.0548 4.52461 15.1285 4.72227 15.1923C4.65781 15.487 4.60195 15.7767 4.55039 16.0762C4.09922 18.8015 4.45156 20.9621 5.57734 21.7036C6.7375 22.4696 8.68828 21.6839 10.5875 19.7836C10.7379 19.6314 10.8883 19.4742 11.0387 19.3073C11.2277 19.5184 11.4254 19.7198 11.623 19.9162C13.4621 21.7232 15.2797 22.4549 16.4012 21.7134C17.5613 20.9474 17.9395 18.6247 17.4496 15.7963C17.4109 15.5803 17.368 15.3593 17.3207 15.1334C17.4582 15.0892 17.5914 15.0401 17.7246 14.991C20.2039 14.0531 22 12.5358 22 10.9792C22 9.49129 20.307 8.04762 17.9695 7.12936ZM12.1559 2.96039C13.7543 1.3694 15.2453 0.745775 15.9242 1.19263C16.6504 1.66894 16.9297 3.59384 16.4742 6.12272C16.4441 6.28967 16.4141 6.45172 16.3754 6.61376C15.4215 6.36824 14.4547 6.19147 13.4836 6.09326C12.925 5.17991 12.3148 4.30585 11.6531 3.48581C11.8207 3.30412 11.984 3.13225 12.1559 2.96039ZM7.18438 13.5277C7.40352 13.9549 7.62695 14.3821 7.86328 14.7995C7.19297 14.716 6.52695 14.5932 5.86953 14.4312C6.05859 13.7241 6.29492 12.9924 6.56992 12.2461C6.76758 12.6782 6.96953 13.1054 7.18438 13.5277ZM5.88242 7.62041C6.50117 7.46327 7.15859 7.3356 7.8418 7.23739C7.61406 7.64496 7.39063 8.06235 7.18008 8.48465C6.96953 8.90204 6.76328 9.32924 6.56992 9.76136C6.29922 9.02971 6.07148 8.31278 5.88242 7.62041ZM7.05977 11.0037C7.34336 10.3261 7.65273 9.66316 7.9793 9.01007C8.30586 8.35697 8.6582 7.72353 9.02773 7.0999C9.67227 7.04588 10.3297 7.01642 11 7.01642C11.6703 7.01642 12.332 7.04588 12.9723 7.0999C13.3375 7.71862 13.6855 8.35206 14.0164 9.00024C14.3473 9.64842 14.6566 10.3113 14.9488 10.9841C14.6609 11.6617 14.3516 12.3295 14.0207 12.9875C13.6941 13.6406 13.3461 14.2741 12.9809 14.9026C12.3406 14.9566 11.6746 14.9812 11 14.9812C10.3254 14.9812 9.67227 14.9566 9.04063 14.9124C8.6668 14.2888 8.31445 13.6504 7.98359 12.9974C7.65273 12.3443 7.34766 11.6814 7.05977 11.0037ZM14.8199 13.5179C15.0391 13.0857 15.2453 12.6487 15.4473 12.2068C15.7223 12.9188 15.9629 13.6406 16.1734 14.3821C15.5074 14.554 14.8328 14.6865 14.1539 14.7749C14.3859 14.3625 14.6051 13.9402 14.8199 13.5179ZM15.4387 9.76136C15.2367 9.32924 15.0305 8.89712 14.8156 8.47483C14.6051 8.05744 14.3859 7.64496 14.1582 7.23739C14.85 7.3356 15.5117 7.46818 16.1305 7.63023C15.9328 8.35697 15.7008 9.06408 15.4387 9.76136ZM11.0086 4.23711C11.4598 4.7969 11.8852 5.38615 12.2805 5.99505C11.4297 5.95085 10.5746 5.95085 9.72383 5.99505C10.1449 5.3616 10.5789 4.77235 11.0086 4.23711ZM6.02422 1.227C6.74609 0.745775 8.34883 1.43324 10.0375 3.14208C10.1449 3.25011 10.2523 3.36796 10.3641 3.48581C9.69805 4.30585 9.08359 5.17991 8.5207 6.09326C7.54961 6.19147 6.58711 6.36333 5.6332 6.60394C5.57734 6.35351 5.53008 6.09817 5.48281 5.84282C5.07891 3.46617 5.34531 1.67385 6.02422 1.227ZM4.97148 14.1709C4.79102 14.112 4.61484 14.0482 4.43867 13.9794C3.52344 13.6504 2.48359 13.1299 1.73164 12.4474C1.29766 12.1036 1.00547 11.5733 0.923828 10.9792C0.923828 10.0805 2.28164 8.9315 4.24102 8.15074C4.48594 8.05253 4.73516 7.96414 4.98438 7.88066C5.27656 8.94623 5.62891 9.99216 6.03711 11.0037C5.62461 12.03 5.26797 13.0907 4.97148 14.1709ZM9.98164 18.9832C9.27266 19.7247 8.45195 20.3139 7.5582 20.7166C7.08125 20.9768 6.53125 21.0014 6.04141 20.7804C5.3582 20.3287 5.07461 18.5953 5.46133 16.2628C5.50859 15.9878 5.56016 15.7128 5.62031 15.4428C6.58281 15.6785 7.55391 15.8405 8.53789 15.924C9.10508 16.8422 9.72813 17.7212 10.3941 18.5462C10.2566 18.6984 10.1191 18.8457 9.98164 18.9832ZM11.0344 17.79C10.5961 17.2498 10.1578 16.6507 9.73242 16.0075C10.1449 16.0271 10.5703 16.0369 11 16.0369C11.4426 16.0369 11.8766 16.0271 12.3063 16.0025C11.9109 16.6262 11.4855 17.2203 11.0344 17.79ZM16.6504 19.2631C16.6117 19.8622 16.3539 20.422 15.9414 20.8001C15.2582 21.2518 13.8016 20.6626 12.2289 19.1207C12.0484 18.9439 11.868 18.7524 11.6832 18.556C12.3406 17.7261 12.9465 16.8471 13.4965 15.924C14.4805 15.8307 15.4602 15.6588 16.427 15.4084C16.4699 15.6097 16.5086 15.811 16.543 16.0075C16.7535 17.0681 16.7879 18.173 16.6504 19.2631ZM17.4324 13.9844C17.3121 14.0285 17.1918 14.0727 17.0672 14.112C16.7664 13.0415 16.3969 11.9956 15.9715 10.9792C16.384 9.97742 16.732 8.94623 17.0242 7.89048C17.2477 7.96414 17.4625 8.04271 17.6688 8.12127C19.6711 8.90695 21.0762 10.0756 21.0762 10.9693C21.0762 11.9318 19.5766 13.1741 17.4324 13.9844ZM11 13.2478C12.0871 13.2478 12.968 12.2411 12.968 10.9988C12.968 9.75645 12.0871 8.74981 11 8.74981C9.91289 8.74981 9.03203 9.75645 9.03203 10.9988C9.03203 12.2411 9.91289 13.2478 11 13.2478Z" fill="#61DAFB"/>
</svg>
