<svg width="217" height="182" viewBox="0 0 217 182" fill="none" xmlns="http://www.w3.org/2000/svg">
<line x1="14.2628" y1="81.5746" x2="33.9218" y2="93.7196" stroke="#192532"/>
<line x1="25.3461" y1="105.476" x2="33.2456" y2="93.8638" stroke="#192532"/>
<line x1="14.4481" y1="81.7782" x2="26.2077" y2="105.536" stroke="#192532"/>
<line x1="34.2263" y1="93.8355" x2="58.4356" y2="84.473" stroke="#192532"/>
<line x1="25.4919" y1="105.335" x2="58.3483" y2="84.517" stroke="#192532"/>
<line x1="15.0336" y1="81.5011" x2="58.6495" y2="84.4404" stroke="#192532"/>
<line x1="58.2129" y1="84.6434" x2="71.871" y2="66.0429" stroke="#192532"/>
<line x1="14.8667" y1="81.5181" x2="71.7668" y2="65.7785" stroke="#192532"/>
<line x1="72.0998" y1="65.8021" x2="113.582" y2="83.8691" stroke="#192532"/>
<line x1="72.3984" y1="65.8546" x2="122.021" y2="78.604" stroke="#192532"/>
<line x1="113.121" y1="83.9017" x2="121.635" y2="78.6624" stroke="#192532"/>
<line x1="113.837" y1="84.1184" x2="131.531" y2="122.564" stroke="#192532"/>
<line x1="122.386" y1="78.9855" x2="131.566" y2="122.67" stroke="#192532"/>
<line x1="113.393" y1="83.8276" x2="144.476" y2="84.4927" stroke="#192532"/>
<line x1="121.842" y1="79.3466" x2="144.646" y2="84.1294" stroke="#192532"/>
<line x1="121.753" y1="78.6094" x2="168.404" y2="64.5874" stroke="#192532"/>
<line x1="168.867" y1="65.4515" x2="144.784" y2="85.3778" stroke="#192532"/>
<line x1="144.936" y1="85.1596" x2="131.548" y2="122.94" stroke="#192532"/>
<line x1="144.537" y1="84.1188" x2="193.835" y2="83.5308" stroke="#192532"/>
<line x1="168.848" y1="64.6662" x2="194.141" y2="83.6307" stroke="#192532"/>
<line x1="168.981" y1="64.8163" x2="195.889" y2="111.439" stroke="#192532"/>
<line x1="194.34" y1="84.0016" x2="195.955" y2="111.659" stroke="#192532"/>
<line x1="193.341" y1="84.0438" x2="192.126" y2="37.7366" stroke="#192532"/>
<line x1="193.001" y1="38.0539" x2="168.923" y2="65.3967" stroke="#192532"/>
<line x1="192.675" y1="37.2259" x2="217.149" y2="39.6271" stroke="#192532"/>
<line x1="26.2065" y1="105.982" x2="7.42818" y2="143.412" stroke="#192532"/>
<path d="M14.4131 83.948C13.3808 83.7315 12.7195 82.7191 12.936 81.6868C13.1525 80.6545 14.1648 79.9932 15.1971 80.2097C16.2294 80.4262 16.8908 81.4386 16.6743 82.4709C16.4577 83.5032 15.4454 84.1645 14.4131 83.948Z" fill="#004EC8"/>
<circle cx="58.6159" cy="84.9393" r="1.52785" transform="rotate(101.845 58.6159 84.9393)" fill="#004EC8"/>
<circle cx="72.0479" cy="66.4866" r="0.954907" transform="rotate(101.845 72.0479 66.4866)" fill="#004EC8"/>
<circle cx="113.383" cy="84.3275" r="1.90981" transform="rotate(101.845 113.383 84.3275)" fill="#004EC8"/>
<circle cx="122.044" cy="79.3144" r="1.33687" transform="rotate(101.845 122.044 79.3144)" fill="#004EC8"/>
<circle cx="131.077" cy="122.773" r="1.90981" transform="rotate(101.845 131.077 122.773)" fill="#004EC8"/>
<circle cx="144.691" cy="84.8448" r="0.954907" transform="rotate(101.845 144.691 84.8448)" fill="#004EC8"/>
<circle cx="168.548" cy="65.0662" r="0.763926" transform="rotate(101.845 168.548 65.0662)" fill="#004EC8"/>
<circle cx="193.989" cy="84.2568" r="1.71883" transform="rotate(101.845 193.989 84.2568)" fill="#004EC8"/>
<circle cx="195.456" cy="111.688" r="1.14589" transform="rotate(101.845 195.456 111.688)" fill="#004EC8"/>
<circle cx="192.626" cy="37.7235" r="0.763926" transform="rotate(101.845 192.626 37.7235)" fill="#004EC8"/>
<circle cx="33.659" cy="94.145" r="0.763926" transform="rotate(101.845 33.659 94.145)" fill="#004EC8"/>
<circle cx="25.7596" cy="105.757" r="0.763926" transform="rotate(101.845 25.7596 105.757)" fill="#004EC8"/>
</svg>
