<svg width="212" height="231" viewBox="0 0 212 231" fill="none" xmlns="http://www.w3.org/2000/svg">
<line x1="10.3383" y1="66.2888" x2="22.9187" y2="85.672" stroke="#192532"/>
<line x1="10.1404" y1="92.6345" x2="22.2458" y2="85.5134" stroke="#192532"/>
<line x1="10.4188" y1="66.5521" x2="10.8938" y2="93.0564" stroke="#192532"/>
<line x1="23.1445" y1="85.907" x2="49.0325" y2="87.792" stroke="#192532"/>
<line x1="10.3325" y1="92.5692" x2="48.9348" y2="87.7945" stroke="#192532"/>
<line x1="11.0665" y1="66.5519" x2="49.2399" y2="87.8541" stroke="#192532"/>
<line x1="48.7584" y1="87.851" x2="69.0569" y2="76.8743" stroke="#192532"/>
<line x1="10.9084" y1="66.4959" x2="69.0758" y2="76.5907" stroke="#192532"/>
<line x1="69.3668" y1="76.7543" x2="99.1446" y2="110.82" stroke="#192532"/>
<line x1="69.6143" y1="76.9295" x2="109.024" y2="109.668" stroke="#192532"/>
<line x1="98.7133" y1="110.652" x2="108.65" y2="109.556" stroke="#192532"/>
<line x1="99.2681" y1="111.155" x2="98.8296" y2="153.474" stroke="#192532"/>
<line x1="109.191" y1="110.169" x2="98.8159" y2="153.585" stroke="#192532"/>
<line x1="98.9915" y1="110.702" x2="126.806" y2="124.59" stroke="#192532"/>
<line x1="108.545" y1="110.263" x2="127.116" y2="124.335" stroke="#192532"/>
<line x1="108.779" y1="109.558" x2="156.948" y2="116.825" stroke="#192532"/>
<line x1="156.997" y1="117.804" x2="126.707" y2="125.522" stroke="#192532"/>
<line x1="126.938" y1="125.39" x2="98.6843" y2="153.822" stroke="#192532"/>
<line x1="127.022" y1="124.279" x2="171.84" y2="144.821" stroke="#192532"/>
<line x1="157.315" y1="117.086" x2="172.074" y2="145.042" stroke="#192532"/>
<line x1="157.371" y1="117.278" x2="161.766" y2="170.928" stroke="#192532"/>
<line x1="172.095" y1="145.463" x2="161.731" y2="171.156" stroke="#192532"/>
<line x1="171.174" y1="145.074" x2="189.871" y2="102.692" stroke="#192532"/>
<line x1="190.526" y1="103.352" x2="157.071" y2="117.778" stroke="#192532"/>
<line x1="190.252" y1="102.568" x2="211.679" y2="115.095" stroke="#192532"/>
<line x1="10.7021" y1="93.4592" x2="-22.2748" y2="119.27" stroke="#192532"/>
<path d="M9.45957 68.4987C8.6189 67.8617 8.45381 66.6638 9.09083 65.8231C9.72785 64.9824 10.9258 64.8173 11.7664 65.4543C12.6071 66.0914 12.7722 67.2893 12.1352 68.1299C11.4981 68.9706 10.3002 69.1357 9.45957 68.4987Z" fill="#004EC8"/>
<circle cx="48.9962" cy="88.2907" r="1.52785" transform="rotate(127.153 48.9962 88.2907)" fill="#004EC8"/>
<circle cx="69.0272" cy="77.351" r="0.954907" transform="rotate(127.153 69.0272 77.351)" fill="#004EC8"/>
<circle cx="98.7681" cy="111.149" r="1.90981" transform="rotate(127.153 98.7681 111.149)" fill="#004EC8"/>
<circle cx="108.742" cy="110.32" r="1.33687" transform="rotate(127.153 108.742 110.32)" fill="#004EC8"/>
<circle cx="98.3296" cy="153.469" r="1.90981" transform="rotate(127.153 98.3296 153.469)" fill="#004EC8"/>
<circle cx="126.851" cy="125.001" r="0.954907" transform="rotate(127.153 126.851 125.001)" fill="#004EC8"/>
<circle cx="156.873" cy="117.319" r="0.763926" transform="rotate(127.153 156.873 117.319)" fill="#004EC8"/>
<circle cx="171.668" cy="145.543" r="1.71883" transform="rotate(127.153 171.668 145.543)" fill="#004EC8"/>
<circle cx="161.268" cy="170.969" r="1.14589" transform="rotate(127.153 161.268 170.969)" fill="#004EC8"/>
<circle cx="190.328" cy="102.893" r="0.763926" transform="rotate(127.153 190.328 102.893)" fill="#004EC8"/>
<circle cx="22.4993" cy="85.9442" r="0.763926" transform="rotate(127.153 22.4993 85.9442)" fill="#004EC8"/>
<circle cx="10.3939" cy="93.0655" r="0.763926" transform="rotate(127.153 10.3939 93.0655)" fill="#004EC8"/>
</svg>
